# xmcd
#
# Track frame offsets:
#	150
#	13052
#	30137
#	50602
#	69847
#	88558
#	108650
#
# Disc length: 1710 seconds
#
# Revision: 0
# Processed by: cddbd v1.5.2PL0 Copyright (c) Steve Scherf et al.
# Submitted via: EZCDAudioConverter 1.3.4.1
#
DISCID=4c06ac07
DTITLE=Sarah Shook and The Devil - Seven
DYEAR=2012
DGENRE=
TTITLE0=Shotgun Betty
TTITLE1=Damn You
TTITLE2=Follow You Home
TTITLE3=Outlaw
TTITLE4=All This Time
TTITLE5=Old Friend
TTITLE6=Ghost Town
EXTD=
EXTT0=
EXTT1=
EXTT2=
EXTT3=
EXTT4=
EXTT5=
EXTT6=
PLAYORDER=
